# xmcd
#
# Track frame offsets: 
#        150
#        19557
#        39107
#        59110
#        77496
#        93577
#        115998
#        133588
#        150001
#        172647
#        200853
#        219300
#        233277
#        252523
#        267988
#
# Disc length: 3855 seconds
#
# Revision: 1
# Processed by: cddbd v1.5.2PL0 Copyright (c) Steve Scherf et al.
# Submitted via: ExactAudioCopy v1.3
#
DISCID=b80f0d0f
DTITLE=?????? - ??
DYEAR=2013
DGENRE=Blues
TTITLE0=Going Home ??
TTITLE1=Happy Life ????
TTITLE2=My Heart Will Go On ????
TTITLE3=Theme From Dying Young ????
TTITLE4=Unchaimed Meldy ?????
TTITLE5=Waterloo Bridge ????
TTITLE6=Reappeared in Yesterday ????
TTITLE7=The Moon Represents My Heart ???????
TTITLE8=Yong bath Love River ????
TTITLE9=Sister Rose ?????
TTITLE10=The Theme of Life ?????
TTITLE11=Love Story ????
TTITLE12=You're Beautiful ?????
TTITLE13=To Kiss Sealed ????
TTITLE14=The Moment ????
EXTD=
EXTT0=
EXTT1=
EXTT2=
EXTT3=
EXTT4=
EXTT5=
EXTT6=
EXTT7=
EXTT8=
EXTT9=
EXTT10=
EXTT11=
EXTT12=
EXTT13=
EXTT14=
PLAYORDER=
